<svg xmlns="http://www.w3.org/2000/svg" viewBox="0 0 502.23 362.37"><defs><style>.cls-1{fill:#fff;}</style></defs><title>Asset 1</title><g id="Layer_2" data-name="Layer 2"><g id="Layer_1-2" data-name="Layer 1"><path class="cls-1" d="M82.25,125C99.42,65.65,162.13.7,252.61,0s155.27,63.36,173.3,124.82c-8,1.74-8.43,1.54-11.26-5.72C387.11,48.49,316.71,3,241.65,9.72,171,16.06,121.82,53.47,93.77,118.6,90.62,125.86,90.82,125.95,82.25,125Z"/><path class="cls-1" d="M428,237.52c-17.07,59.41-80.68,125.09-172.22,124.85-91.31-.23-154.37-65.9-171.28-124.78,8.39-1.38,8.39-1.38,11.27,5.93,27.74,70.5,97.52,115.69,172.68,109.13,70.64-6.16,119.91-43.55,148-108.68C419.7,236.46,419.49,236.37,428,237.52Z"/><path class="cls-1" d="M238.32,16c.76.82,3.09,2.17,3.34,3.83.51,3.35-2.21,4.18-5.17,4.57a156.63,156.63,0,0,0-82,36.07c-4.7,4-9,8.4-13.42,12.7-2,2-4.14,3.13-6.49.87s-1.43-4.5.53-6.54q41.38-43.33,100.76-51.28C236.2,16.13,236.53,16.12,238.32,16Z"/><path class="cls-1" d="M274.11,346.42l-3.54-3.94c1.66-1.48,3.18-4,5-4.27a169.89,169.89,0,0,0,44.56-12.55,158.21,158.21,0,0,0,49.3-34.35c.81-.83,1.5-2.17,2.46-2.4a36,36,0,0,1,6.13-.52c-.12,2.07.1,4.25-.5,6.17-.4,1.28-2,2.2-3,3.27q-40,40.12-96,48.14C277.51,346.11,276.51,346.17,274.11,346.42Z"/><path class="cls-1" d="M243.71,36.2a40.39,40.39,0,0,1-6.1,2.73c-12,3.3-24.34,5.53-35.94,9.83-18.8,7-34.82,18.59-48.76,33-.46.48-.85,1.28-1.38,1.39-2,.42-4.08.62-6.12.9.09-2.2-.74-5.39.41-6.44,8.32-7.62,16.54-15.5,25.72-22,19.61-13.85,41.68-21.86,65.53-24.92C240.53,30.29,243,30.73,243.71,36.2Z"/><path class="cls-1" d="M272.43,332.09c-.86-1-3.1-2.46-3.09-3.9s1.93-3.88,3.46-4.32c4.28-1.24,8.83-1.51,13.21-2.45,28.27-6,52.46-19.51,72.75-40.06.47-.47,1-.93,1.4-1.42,2.05-2.25,4.39-4.21,7.14-1.36s.65,5.13-1.42,7.27a151.57,151.57,0,0,1-81.45,44.33C280.85,330.88,277.21,331.34,272.43,332.09Z"/><path class="cls-1" d="M271.32,317.52c-.85-.81-3.32-2.06-3.79-3.83-.78-3,1.6-4.25,4.47-4.63q45.76-6,77.75-39.35c2-2.12,4.51-3.82,6.69-1,1,1.23.78,4.8-.31,6C333.56,298.82,305.7,312.81,271.32,317.52Z"/><path class="cls-1" d="M241.79,44.93c.78.92,3.49,3.05,3.13,3.89-.77,1.83-3,4-4.82,4.3-19.77,2.86-38.25,9.22-54.66,20.61-8,5.57-15.18,12.4-22.61,18.81-2.18,1.88-4.18,3.77-6.84,1.26s-1.24-4.77.8-6.89Q190.4,52,238.37,45.24C239,45.15,239.7,45.12,241.79,44.93Z"/><path class="cls-1" d="M243.32,59.26c.86.95,3.34,2.55,3.16,3.75a6.62,6.62,0,0,1-3.89,4.51c-6.23,1.73-12.75,2.39-18.95,4.2a112.12,112.12,0,0,0-49,29.54c-.82.83-1.51,2.16-2.47,2.39-1.73.41-4.59.88-5.2,0-1-1.32-.63-3.73-.43-5.64.09-.8,1.22-1.51,1.92-2.22,20-20.21,44-32.34,72.21-36.15Z"/><path class="cls-1" d="M270.19,304.11c-1.83-2-4.38-3.67-4.26-5.07.14-1.59,2.42-3.82,4.18-4.31,8.14-2.27,16.63-3.43,24.62-6.12,16.83-5.66,31.22-15.4,43.71-28,1.45-1.46,3.95-3,5.77-2.75,3.55.41,3.85,4.39.66,7.74-12,12.57-25.85,22.61-42.13,28.69C292.32,298.15,281.52,300.74,270.19,304.11Z"/><path class="cls-1" d="M267.42,288.4c-.74-.88-3.4-2.94-3.05-3.84.7-1.83,2.87-4.05,4.71-4.33,17.64-2.7,33.69-9.06,47.79-20.06,4.06-3.16,7.77-6.78,11.52-10.32,2.15-2,4.68-3.68,6.7-.87.95,1.32.48,5-.74,6.32-17.41,18.46-38.83,29.32-64,32.86C269.89,288.22,269.39,288.24,267.42,288.4Z"/><path class="cls-1" d="M244.86,73.76c.91,1,3.42,2.51,3.25,3.68-.24,1.72-2.24,4.34-3.78,4.55a102.58,102.58,0,0,0-60.78,30.74c-1.17,1.19-4,.75-6.05,1.07-.14-1.95-1.18-4.72-.27-5.72C195.12,88.52,217.46,77.42,244.86,73.76Z"/><path class="cls-1" d="M246.47,88c1.07,1.17,3.39,2.59,3.41,4s-1.92,3.88-3.48,4.37c-4.58,1.42-9.48,1.78-14.09,3.12a86.19,86.19,0,0,0-37.22,22.36c-1.33,1.33-3.72,2.56-5.44,2.36-3.53-.42-3.83-4.38-.62-7.72a91.28,91.28,0,0,1,42.78-25.37C236.32,89.94,240.9,89.18,246.47,88Z"/><path class="cls-1" d="M265.72,274.11c-.84-1-2.91-2.33-3.1-3.92-.16-1.29,1.66-3.69,3.08-4.15,3.76-1.22,7.82-1.46,11.67-2.45A84.16,84.16,0,0,0,317,240.7c2.2-2.23,4.58-4.73,7.5-1.67s.38,5.42-1.81,7.61a93.1,93.1,0,0,1-54.3,27.08Z"/><path class="cls-1" d="M264.26,259.58c-.91-.95-3.05-2.16-3.39-3.75-.63-3,1.58-4.34,4.45-4.72a66.88,66.88,0,0,0,30.88-12c4-2.9,7.43-6.7,11.49-9.55,1.47-1,4-.47,6.11-.64,0,1.94.85,4.65-.11,5.7C300.72,248.89,284.48,256.91,264.26,259.58Z"/><path class="cls-1" d="M251.93,108.16c-1.17.8-2.66,2.63-4.37,2.88a73.49,73.49,0,0,0-42.49,21.38c-1.22,1.22-4.88,1.6-6.29.67-2.63-1.73-1.34-4.34.61-6.35a78.14,78.14,0,0,1,46.24-23.6C248.76,102.7,251.32,103.18,251.93,108.16Z"/><path class="cls-1" d="M254.66,121.85c-2.22,1.54-3.68,3.34-5.38,3.61a58.45,58.45,0,0,0-33.57,17.1c-2,2.09-4.73,3-6.3.38-.88-1.44-.32-5,.93-6.32,10.12-10.8,22.77-17,37.39-19.08a4.57,4.57,0,0,1,2.89.2C251.86,118.58,252.79,119.89,254.66,121.85Z"/><path class="cls-1" d="M262.63,245.08c-.8-.81-2.88-2-3.32-3.6-.83-3.05,1.43-4.44,4.25-4.82a54.91,54.91,0,0,0,26.79-11.19c2.35-1.83,4.22-4.4,6.76-5.83,1.6-.91,4-.34,6.1-.43-.05,1.94.71,4.63-.28,5.71C292.43,236.36,279.32,242.88,262.63,245.08Z"/><path class="cls-1" d="M256.32,173.52a7.64,7.64,0,1,1-.1,15.27h0a7.64,7.64,0,0,1,.1-15.27Z"/><path class="cls-1" d="M79.65,213.15l-12.4-24.52H22.12L9.46,213.15H0l41.68-79.54h7.16L89,213.15ZM45.26,145,26,181.47H63.67Z"/><path class="cls-1" d="M89.74,213.15V133.61h8.44v79.54Z"/><path class="cls-1" d="M164.4,205.64q-8.82,8.68-24.55,8.68-15.09,0-24.29-9.62v8.56h-8.44V133.6h8.44v28.86q8.69-9.27,24.42-9.27t24.55,8.92q8.18,8.33,8.18,21.94T164.4,205.64Zm-5.88-38.48q-6.39-6.8-18-6.8-12.53,0-18.73,6.39t-6.2,17.54a21.59,21.59,0,0,0,6.84,16.42q6.84,6.45,18.22,6.45t17.77-6.69q6-6.22,6-16.54Q164.4,173.38,158.52,167.16Z"/><path class="cls-1" d="M234.39,206.11q-9.27,8.33-25,8.33t-24.8-8.33q-9.08-8.33-9.08-21.59t9.2-21.64q9.2-8.39,24.93-8.39t24.86,8.39q9.14,8.39,9.14,21.64T234.39,206.11Zm-5.94-38.3q-6.78-6.27-18.92-6.28t-18.79,6.33Q184,174.2,184,184.52t6.84,16.54q6.84,6.34,18.73,6.33t18.79-6.33q6.9-6.34,6.9-16.54,0-10.44-6.77-16.71Z"/><path class="cls-1" d="M328.06,206.11q-9.27,8.33-25,8.33t-24.8-8.33q-9.08-8.33-9.08-21.59t9.2-21.64q9.2-8.39,24.93-8.39t24.86,8.39q9.14,8.39,9.14,21.64T328.06,206.11Zm-5.94-38.3q-6.78-6.27-18.92-6.28t-18.79,6.33q-6.78,6.34-6.78,16.66t6.84,16.54q6.84,6.34,18.73,6.33T322,201.06q6.9-6.34,6.9-16.54,0-10.44-6.77-16.71Z"/><path class="cls-1" d="M429.37,213.15V176q0-14.43-15.72-14.43-8.82,0-14,4.28a14.34,14.34,0,0,0-5.18,11.67v35.66H386V175.95q0-14.43-16.11-14.43-9.2,0-14.32,6-4.6,5.4-4.6,13.61v32h-8.44V155.76H351v5.76q7.41-7,20.2-7,13.93,0,20.2,9,6.77-9,22-9,24.42,0,24.42,20.41v38.24Z"/><path class="cls-1" d="M443.18,213.15v-6l44.74-44.23h-41v-7H500.1v5.87l-44.87,44.34h47v7Z"/></g></g></svg>